<svg viewbox="0 0 1900 480" width="100%" 
    xmlns="http://www.w3.org/2000/svg" 
    xmlns:xlink="http://www.w3.org/1999/xlink">
    <defs/>
    <defs>
        <path d="M282 32h16V0h555v240H0V0h282v32zm16 176h-16v32h16v-32zM84 16H68v16H52v16H36v32H20v80h16v16h16v16h16v16H52v16h48v-16H84v-16h16v-16H84v-16h16v-16H84v-16h16v-16H84V96h16V80h16V48h-16V32H84V16zm118 192h-16v16h16v-16zm192 0h-16v16h16v-16zm-16-16h-16v16h16v-16zm-160 0h-16v16h16v-16zm96-16h-48v16h48v-16zm319.089404-88.4c-28.373474 0-47.408843 20.34-47.408843 52.2 0 29.88 19.394527 50.4 48.486316 50.4 18.676211 0 35.017895-9.9 42.560211-27.36l-18.317053-5.94c-4.848631 10.08-13.648 15.48-25.320631 15.48-16.341685 0-25.859369-10.08-27.296-28.26h72.370315c1.975369-34.74-15.443789-56.52-45.074315-56.52zm56.028631 2.52l29.630526 97.38h15.084632l22.626947-70.38 21.729053 70.38h16.162105l29.630527-97.2h-18.496632l-20.472 66.78-20.292421-66.78h-16.162105l-20.472 66.78-20.292421-66.78-18.676211-.18zM483.140982 57.9h-19.035368v129.6h19.035368V91.2l63.750527 96.3h19.035368V57.9h-19.035368v96.3l-63.750527-96.3zM116 160h-16v16h16v-16zm134-16h-16v32h32v-16h-16v-16zm96 0h-16v16h-16v16h32v-32zM68 160v16H52v-16h16zm64-80h-16v16h-16v16h16v16h-16v16h16v16h16V80zm-80 64v16H36v-16h16zm310-48h-16v48h16V96zM68 128v16H52v-16h16zm166-32h-16v48h16V96zm399.807719 8.34c14.905053 0 23.165685 8.1 25.141053 25.2H606.33214c2.334527-16.38 11.672632-25.2 27.475579-25.2zM202 112h-32v16h32v-16zm-150 0v16H36v-16h16zm358 0h-32v16h32v-16zM68 96v16H52V96h16zm198-32h-32v32h16V80h16V64zm80 0h-32v16h16v16h16V64zM52 80v16H36V80h16zm16-16v16H52V64h16zm32 0v16H84V64h16zm214-16h-48v16h48V48zm64-16h-16v16h16V32zm-160 0h-16v16h16V32zm176-16h-16v16h16V16zm-192 0h-16v16h16V16z" id="a"/>
    </defs>
    <g fill="none" fill-rule="evenodd">
        <use fill="#001FCD" xlink:href="#a" transform="translate(382)"/>
        <path d="M1451.28496 330.708935c12.16113 0 23.57388 4.48824 31.61893 12.342658v-9.537508h17.21267v103.790532c0 17.952957-4.67736 28.799536-16.83848 36.653954C1473.17499 480.50392 1462.69771 482 1452.96881 482c-9.16761 0-19.2707-2.992159-26.00609-8.415449-5.42574-2.992159-10.66438-7.854418-14.03207-13.464717l18.14814-8.789469c1.12256 2.24412 2.80641 3.927209 4.67735 5.423289 4.30317 4.488239 11.41275 6.732359 17.39977 6.732359 7.29667 0 14.78044-2.05711 19.83198-6.171329 5.98702-4.862259 7.67087-10.285548 7.48377-20.384086v-9.724519c-7.85795 6.732359-18.14814 10.098538-29.56088 10.098538-13.65788 0-26.56738-5.797309-34.98662-16.269867-8.41924-10.472558-11.41275-23.563256-11.41275-37.027974 0-13.651727 3.36769-26.929435 11.41275-37.214983 8.41924-10.472559 21.51583-16.082858 35.3608-16.082858zm-633.685899 0c12.161125 0 23.573872 4.48824 31.618924 12.342658v-9.537508h17.212668v103.790532c0 17.952957-4.677355 28.799536-16.83848 36.653954C839.489085 480.50392 829.011809 482 819.282909 482c-9.167617 0-19.270705-2.992159-26.006097-8.415449-5.425732-2.992159-10.664371-7.854418-14.032067-13.464717l18.14814-8.789469c1.122565 2.24412 2.806413 3.927209 4.677356 5.423289 4.303167 4.488239 11.412747 6.732359 17.399762 6.732359 7.296675 0 14.780444-2.05711 19.831988-6.171329 5.987015-4.862259 7.670863-10.285548 7.483769-20.384086v-9.724519c-7.857958 6.732359-18.14814 10.098538-29.560887 10.098538-13.657879 0-26.56738-5.797309-34.98662-16.269867-8.41924-10.472558-11.412748-23.563256-11.412748-37.027974 0-13.651727 3.367696-26.929435 11.412748-37.214983 8.41924-10.472559 21.515836-16.082858 35.360808-16.082858zm-154.539299 0c6.922486 0 14.593349 1.49608 21.328741 5.04927 9.7289 4.675249 17.773951 14.212757 21.141647 24.311295l-18.522328 4.48824c-4.303167-11.407608-13.844972-16.456878-25.070626-16.643888-10.103088-.374019-20.206176 4.11422-20.206176 11.220599 0 5.651856 4.434826 8.052972 11.202042 10.092894l2.642931.753684c2.494589.74804 5.063093 1.49608 7.853337 2.293373l13.570531 3.820031c17.02836 5.026987 29.091572 14.813011 29.091572 30.54055 0 9.350498-5.238638 18.888006-13.470784 23.937276-8.41924 5.236279-17.399763 6.732358-27.128662 6.732358-13.28369 0-24.883532-2.992159-34.051149-12.529667-5.987015-6.358339-9.167617-13.090698-10.851465-19.449037l17.773951-5.049269c1.496754 4.675249 3.741885 9.350498 7.109581 12.529668 5.238638 5.236279 12.722407 7.293388 20.206176 7.293388 5.425732 0 13.28369-1.309069 17.212668-4.114219 3.367696-2.43113 5.238638-5.423289 5.238638-9.350498 0-7.31039-7.112672-9.984169-15.153085-12.376941l-19.109703-5.498595c-1.78585-.529953-3.246603-.981394-4.639719-1.437196l-2.071127-.697335c-5.987015-2.24412-12.722407-5.236279-17.399763-10.098538-4.303167-4.67525-5.987015-11.781628-5.987015-16.643888 0-11.594618 7.483769-21.132126 17.399763-25.433368 7.483769-3.179157 14.780443-3.740187 21.890024-3.740187zm438.921568-33.661794c16.65139 0 31.24474 4.488239 42.0962 15.147807l1.83578 1.702631c8.88925 8.609947 13.48256 18.65808 15.93818 29.528034l-19.6449 2.80515c-1.49675-5.610299-3.92898-11.033588-7.48377-15.521828-7.67086-10.285548-18.52232-14.773787-31.61892-14.960863-12.72241-.186944-25.25772 4.862325-32.74149 14.960863-7.85796 9.911529-10.29018 23.376246-10.29018 36.466944.18709 13.090698 2.24513 25.994386 10.29018 36.466944 7.48377 10.285548 19.64489 14.960798 32.74149 15.147808 12.9095.18701 24.13515-5.04927 31.61892-15.147808 3.18061-4.114219 5.42574-8.789468 6.92249-13.838738l19.2707 4.86226c-2.80641 10.098538-7.48376 19.449036-16.65138 27.677475-11.22565 10.659568-26.0061 14.960797-42.2833 14.960797-19.45779 0-36.29627-7.293388-47.33483-21.693156-10.85147-14.025748-15.34173-31.417675-15.15464-48.435582.1871-17.952957 3.92898-34.970864 14.96754-48.622592 11.59984-14.399767 28.43832-21.506146 47.52193-21.506146zm122.92043 33.661794c14.78044 0 28.62542 5.423289 37.60594 16.643888 8.79343 10.659568 11.97403 23.376246 11.97403 36.653953 0 13.838738-3.3677 25.994386-11.97403 36.653954-9.16762 11.220598-22.6384 16.643887-37.60594 16.643887-14.59335 0-28.43832-5.610299-37.60594-16.643887-8.41924-10.659568-11.78693-23.189236-11.78693-36.653954 0-13.651727 3.74187-26.555415 11.78693-36.653953 8.98052-10.846579 23.01259-16.643888 37.60594-16.643888zm425.82495 0c14.78045 0 26.75448 5.04927 35.92209 15.895848 9.35471 11.407608 11.97403 26.368405 11.03856 42.825283h-75.39897c.56128 7.106378 2.43223 13.838737 6.5483 19.262026 4.86445 6.732359 13.09659 10.098539 21.89002 10.098539 6.73539 0 12.34822-1.49608 17.02558-4.86226 4.49026-3.179169 7.29667-6.919368 9.35471-11.220598l19.08361 6.171329c-3.74189 8.789469-10.10309 16.269868-17.77395 20.945117-7.85796 4.862259-17.39976 7.480398-26.56738 7.480398-14.96754 0-29.74798-5.797309-38.72851-16.643887-8.23214-10.285548-11.78693-23.002226-11.78693-35.718904 0-14.025747 3.74187-27.490465 11.78693-37.589003 9.16762-11.033589 23.01259-16.643888 37.60594-16.643888zm205.24162 0c6.92249 0 14.59335 1.49608 21.32874 5.04927 9.7289 4.675249 17.77395 14.212757 21.14165 24.311295l-18.52233 4.48824c-4.30317-11.407608-13.84497-16.456878-25.07063-16.643888-10.10308-.374019-20.20617 4.11422-20.20617 11.220599 0 6.358339 5.61282 8.602458 13.84497 10.846578l7.85334 2.293373 11.79155 3.316926C1886.0905 380.453587 1899 390.365115 1899 406.634983c0 9.350498-5.23864 18.888006-13.47078 23.937276-8.41924 5.236279-17.39977 6.732358-27.12867 6.732358-13.28369 0-24.88353-2.992159-34.05114-12.529667-5.98702-6.358339-9.16762-13.090698-10.85147-19.449037l17.77395-5.049269c1.49676 4.675249 3.74189 9.350498 7.10958 12.529668 5.23864 5.236279 12.72241 7.293388 20.20618 7.293388 5.42573 0 13.28369-1.309069 17.21267-4.114219 3.36769-2.43113 5.23863-5.423289 5.23863-9.350498 0-8.041429-8.60633-10.472559-17.58685-13.090698l-16.67593-4.784838c-2.67878-.794929-4.62609-1.413207-6.71085-2.134531-5.98702-2.24412-12.72241-5.236279-17.39976-10.098538-4.30317-4.67525-5.98702-11.781628-5.98702-16.643888 0-11.594618 7.48377-21.132126 17.39976-25.433368 7.48377-3.179157 14.78045-3.740187 21.89003-3.740187zm-100.65634 0c6.92249 0 14.59335 1.49608 21.32874 5.04927 9.7289 4.675249 17.77395 14.212757 21.14165 24.311295l-18.52233 4.48824c-4.30317-11.407608-13.84497-16.456878-25.07062-16.643888-10.10309-.374019-20.20618 4.11422-20.20618 11.220599 0 5.651856 4.43483 8.052972 11.20204 10.092894l2.64293.753684c2.49459.74804 5.0631 1.49608 7.85334 2.293373l13.57053 3.820031c17.02836 5.026987 29.09157 14.813011 29.09157 30.54055 0 9.350498-5.23864 18.888006-13.47078 23.937276-8.41924 5.236279-17.39976 6.732358-27.12866 6.732358-13.28369 0-24.88354-2.992159-34.05115-12.529667-5.98702-6.358339-9.16762-13.090698-10.85147-19.449037l17.77395-5.049269c1.49676 4.675249 3.74189 9.350498 7.10958 12.529668 5.23864 5.236279 12.72241 7.293388 20.20618 7.293388 5.42573 0 13.28369-1.309069 17.21267-4.114219 3.36769-2.43113 5.23864-5.423289 5.23864-9.350498 0-7.31039-7.11268-9.984169-15.15309-12.376941l-19.1097-5.498595c-1.78585-.529953-3.2466-.981394-4.63972-1.437196l-2.07113-.697335c-5.98701-2.24412-12.7224-5.236279-17.39976-10.098538-4.30317-4.67525-5.98702-11.781628-5.98702-16.643888 0-11.594618 7.48377-21.132126 17.39977-25.433368 7.48377-3.179157 14.78044-3.740187 21.89002-3.740187zm-1196.837507 0c14.780444 0 26.754474 5.04927 35.922091 15.895848 9.354711 11.407608 11.97403 26.368405 11.038559 42.825283h-75.398971c.561282 7.106378 2.432225 13.838737 6.548297 19.262026 4.86445 6.732359 13.096596 10.098539 21.890024 10.098539 6.735392 0 12.348219-1.49608 17.025575-4.86226 4.490261-3.179169 7.296674-6.919368 9.354711-11.220598l19.08361 6.171329c-3.741884 8.789469-10.103088 16.269868-17.773951 20.945117-7.857957 4.862259-17.399762 7.480398-26.567379 7.480398-14.967538 0-29.747982-5.797309-38.728504-16.643887-8.232146-10.285548-11.786936-23.002226-11.786936-35.718904 0-14.025747 3.741871-27.490465 11.786936-37.589003 9.167617-11.033589 23.012589-16.643888 37.605938-16.643888zm-126.849428-30.856644c17.773951 0 33.302772 5.984319 43.967143 17.952957 12.161124 12.903687 17.212668 31.043654 17.212668 49.557641 0 18.139967-5.612827 36.840964-17.025574 49.183622-11.225654 12.342658-27.502851 17.952957-44.341331 17.952957h-46.025179V299.852291h46.212273zm507.210654 31.043654c10.851465-.74804 22.077118 1.30907 31.244735 9.350499 11.360361 9.978852 13.219329 25.655972 13.29837 41.206464l-.01468 4.049948v48.996612h-19.831988v-48.248572c0-12.903688-1.496754-24.685316-9.354711-31.417675-4.303167-3.927209-10.477277-5.797309-17.586857-5.610299-5.612827.37402-10.664371 2.05711-14.780444 5.423289-4.303167 3.36618-7.10958 8.789469-8.232145 14.960798l-.389844 1.942954c-.689862 4.024947-.862327 8.844109-.905444 13.737152l-.014372 49.212353h-19.644893V333.514085h17.399762v12.342658l3.180602-3.7402c6.548298-7.293388 16.464292-10.659568 25.631909-11.220598zm-190.461336 2.61814v100.985383H728.72948V333.514085h19.644893zm592.899597-2.61814c10.85146-.74804 22.07711 1.30907 31.24473 9.350499 11.36036 9.978852 13.21933 25.655972 13.29837 41.206464l-.01468 4.049948v48.996612h-19.83199v-48.248572c0-12.903688-1.49675-24.685316-9.35471-31.417675-4.30317-3.927209-10.47727-5.797309-17.58685-5.610299-5.61283.37402-10.66438 2.05711-14.78045 5.423289-4.30317 3.36618-7.10958 8.789469-8.23214 14.960798l-.38985 1.942954c-.68986 4.024947-.86233 8.844109-.90544 13.737152l-.01437 49.212353h-19.6449V333.514085h17.39977v12.342658l3.1806-3.7402c6.5483-7.293388 16.46429-10.659568 25.63191-11.220598zm234.6464-.087661c4.45335-.081816 8.99623.695444 13.25263 2.331781v18.326977c-4.67736-1.68309-10.66437-2.61814-16.83848-2.24412-7.67087.37402-14.03207 2.99216-18.14814 7.293389-7.10958 6.732359-8.23215 15.895847-8.23215 27.116445v50.866712h-19.64489V333.514085h17.39976v14.586777c2.24513-3.927209 5.42573-7.480398 9.54181-10.472558 6.17411-4.488239 13.47078-6.545349 20.76746-6.732359zm-755.327801 17.666598c-9.354712 0-17.399763 2.99216-22.451307 10.285549-4.677356 6.358339-6.548298 15.521827-6.548298 25.246345 0 9.537509 1.683848 18.700997 6.361204 25.059336 5.051544 7.293389 13.470784 10.472558 21.890024 10.472558 8.793428 0 16.464291-2.992159 21.70293-9.163488 5.425732-6.545349 7.670863-16.456877 7.670863-26.368406 0-10.098538-2.245131-19.823056-7.670863-26.368405-4.86445-6.358339-12.535313-9.163489-20.954553-9.163489zm633.685901 0c-9.35471 0-17.39976 2.99216-22.45131 10.285549-4.67735 6.358339-6.54829 15.521827-6.54829 25.246345 0 9.537509 1.68385 18.700997 6.3612 25.059336 5.05154 7.293389 13.47078 10.472558 21.89002 10.472558 8.79343 0 16.4643-2.992159 21.70293-9.163488 5.42574-6.545349 7.67087-16.456877 7.67087-26.368406 0-10.098538-2.24513-19.823056-7.67087-26.368405-4.86445-6.358339-12.53531-9.163489-20.95455-9.163489zm-229.37671.74804c-8.79343 0-17.02557 3.17917-21.89002 9.911529-5.05155 6.732358-6.7354 15.895847-6.7354 24.872325 0 8.976479 1.68385 17.952957 6.7354 24.685316 4.86445 6.732359 13.09659 10.098539 21.89002 10.098539 8.79343 0 17.21267-3.36618 22.07712-10.098539 5.05154-6.732359 6.73539-15.708837 6.73539-24.685316 0-8.976478-1.68385-18.139967-6.73539-24.872325-4.86445-6.732359-13.28369-9.911529-22.07712-9.911529zm-793.276705-30.856645l-26.193191.18701v97.245184l26.006097.18701c11.412748-.18701 22.077118-3.927209 29.560887-12.155648 8.045052-9.537508 10.851465-22.815216 11.038559-36.279934.187095-13.838737-2.993507-27.490465-11.038559-36.840964-7.857957-8.789468-17.773951-11.968638-29.373793-12.342658zm1240.617495 39.085084c-4.86445-6.358339-13.0966-9.537509-21.51584-9.350499l-1.50995.000366c-7.55389.1808-15.11805 3.073611-20.38007 9.911163-3.55479 4.675249-5.23864 9.911528-6.17411 15.708837h55.0057c-.56128-6.171329-1.87094-11.594618-5.42573-16.269867zm-1092.252231 0c-4.86445-6.358339-13.096596-9.537509-21.515836-9.350499l-1.509954.000366c-7.553884.1808-15.118045 3.073611-20.38007 9.911163-3.55479 4.675249-5.238638 9.911528-6.174109 15.708837h55.005701c-.561282-6.171329-1.870942-11.594618-5.425732-16.269867zm168.384054-58.90814v19.075017H728.72948v-19.075017h19.644893zM282.885663 83.8566448c14.780444 0 26.754474 5.0492692 35.922091 15.8958474 9.354711 11.4076078 11.97403 26.3684058 11.038559 42.8252828h-75.398972c.561283 7.106379 2.432225 13.838738 6.548298 19.262027 4.86445 6.732359 13.096595 10.098538 21.890024 10.098538 6.735392 0 12.348219-1.49608 17.025574-4.862259 4.490262-3.17917 7.296675-6.919369 9.354711-11.220598l19.083611 6.171329c-3.741884 8.789468-10.103088 16.269867-17.773951 20.945116-7.857957 4.862259-17.399763 7.480399-26.56738 7.480399-14.967538 0-29.747981-5.797309-38.728504-16.643887-8.232146-10.285549-11.786936-23.002226-11.786936-35.718904 0-14.025748 3.741872-27.490466 11.786936-37.589004 9.167617-11.0335881 23.01259-16.6438872 37.605939-16.6438872zM109.075932 53v18.5139869H64.3604125V187.647177H44.7155192V71.5139869H0V53h109.075932zm32.366903 0v46.0044523l3.180602-3.7401994c6.548298-7.2933888 16.464292-10.6595682 25.631909-11.2205981 10.851465-.7480399 22.077118 1.3090698 31.244735 9.3504984 11.360361 9.9788518 13.219329 25.6559728 13.29837 41.2064648l-.01468 4.049948v48.996611h-19.831988v-48.248571c0-12.903688-1.496754-24.685316-9.354711-31.417675-4.303167-3.92721-10.477277-5.797309-17.586857-5.610299-5.612827.37402-10.664371 2.057109-14.780444 5.423289-4.303167 3.366179-7.10958 8.789468-8.232145 14.960797l-.389844 1.942954c-.689862 4.024947-.862327 8.84411-.905444 13.737152l-.014372 49.212353h-19.644893V53h17.399762zm162.958664 57.59907c-4.86445-6.358339-13.096596-9.537508-21.515836-9.350498l-1.509955.000365c-7.553883.180801-15.118044 3.073611-20.380069 9.911163-3.55479 4.675249-5.238638 9.911529-6.174109 15.708838h55.005701c-.561283-6.171329-1.870942-11.594618-5.425732-16.269868z" fill="#001FCD" fill-rule="nonzero"/>
    </g>
</svg>