<svg xmlns="http://www.w3.org/2000/svg" viewBox="0 0 256 166"><path d="M153.6 12.77h89.6v140.46h-89.6V12.77zM128 25.537h12.8v114.924H128V25.538zm39.2 101.356v12.77h25.6v-12.77h-25.6zm-64.8-88.586h12.8v89.384h-12.8V38.308zM76.8 51.077h12.8v63.846H76.8V51.077zm89.6 50.279v12.769h64v-12.77h-64zM51.2 63.846H64v38.308H51.2V63.846zm-38.4 38.308h25.6v12.77H64v12.768h25.6v12.77h25.6v12.769h25.6V166l102.4-.001V166H256V0H140.8v12.77h-25.6v12.768H89.6v12.77H64v12.769H38.4v13.567H12.8v12.77H0v12.769h12.8v11.97zm153.6-26.337v12.77h64v-12.77h-64zm0-25.538v12.77h64v-12.77h-64zm0-25.539v12.77h51.2V24.74h-51.2zM25.6 77.413h12.8v11.972H25.6V77.413z" fill="white" fill-rule="evenodd"/></svg>