<svg fill="none" xmlns="http://www.w3.org/2000/svg" viewBox="0 0 32 114"><path d="M0 0h32v114H0z"/><path fill="currentColor" d="M10 90v2h14v-2zM12 100v2h12v-2zM8 36v2h16v-2zM8 72v2h14v-2zM18 46v2h4v-2zM16 44v2h2v-2zM16 42v2h2v-2zM22 38v2h2v-2zM18 40v2h4v-2zM22 48v2h2v-2zM8 57v2h16v-2zM22 72v2h2v-2zM22 74v2h2v-2zM20 76v2h2v-2zM8 84v2h2v-2zM10 98v2h2v-2zM8 100v2h4v-2zM8 102v2h2v-2zM10 104v2h2v-2zM8 92v6h2v-6zM8 86v2h16v-2zM16 78v2h4v-2zM14 80v2h2v-2zM10 82v2h4v-2zM8 50v2h16v-2z"/><path fill-rule="evenodd" clip-rule="evenodd" d="M8 8h16v2H8V8zm0 7h16v2H8v-2zm16 7H8v2h16v-2z" fill="currentColor"/><path fill="currentColor" d="M22 54v16h2V54zM16 54v16h2V54zM8 54v16h2V54z"/></svg>